<svg width="16" height="16" viewBox="0 0 16 16" fill="none" xmlns="http://www.w3.org/2000/svg">
<path d="M9.17867 0.764678C9.0239 0.609867 8.84015 0.487062 8.63791 0.403277C8.43567 0.319491 8.21891 0.276367 8 0.276367C7.78109 0.276367 7.56433 0.319491 7.36209 0.403277C7.15986 0.487062 6.9761 0.609867 6.82133 0.764678L0 7.58668V14C0 14.5304 0.210714 15.0392 0.585786 15.4142C0.960859 15.7893 1.46957 16 2 16H14C14.5304 16 15.0391 15.7893 15.4142 15.4142C15.7893 15.0392 16 14.5304 16 14V7.58668L9.17867 0.764678ZM14 14H10.6667V11.8787C10.6667 11.2036 10.3985 10.5562 9.92116 10.0789C9.44381 9.60151 8.7964 9.33335 8.12133 9.33335H7.87867C7.2036 9.33335 6.55619 9.60151 6.07884 10.0789C5.6015 10.5562 5.33333 11.2036 5.33333 11.8787V14H2V8.41468L8 2.41468L14 8.41468V14Z" fill="#00858D"/>
</svg>
