<svg width="20" height="20" viewBox="0 0 20 20" fill="none" xmlns="http://www.w3.org/2000/svg">
<path d="M18.7212 8.22167C16.9387 8.22167 15.2863 7.65167 13.9379 6.68333V13.6708C13.9379 17.1608 11.0987 19.9992 7.60958 19.9992C6.26125 19.9992 5.01042 19.5742 3.98292 18.8525C2.35125 17.7067 1.28125 15.8117 1.28125 13.6708C1.28125 10.1808 4.12042 7.34167 7.61042 7.34167C7.90042 7.34167 8.18375 7.36583 8.46292 7.40333V8.2175V10.9133C8.19292 10.8292 7.90792 10.78 7.61042 10.78C6.01708 10.78 4.72042 12.0767 4.72042 13.6708C4.72042 14.7808 5.35042 15.745 6.27042 16.2292C6.67125 16.44 7.12708 16.5608 7.61125 16.5608C9.16792 16.5608 10.4379 15.3225 10.4963 13.7792L10.4987 0H13.9371C13.9371 0.298333 13.9662 0.589167 14.0179 0.8725C14.2604 2.1825 15.0379 3.30667 16.1154 4.00917C16.8654 4.49833 17.7604 4.78417 18.7204 4.78417L18.7212 8.22167Z" fill="white"/>
</svg>
