<svg width="215" height="34" viewBox="0 0 215 34" fill="none" xmlns="http://www.w3.org/2000/svg">
<rect width="215" height="34" rx="4" fill="white" fill-opacity="0.12"/>
<g clip-path="url(#clip0_2062_3216)">
<path d="M20.5893 12.3823C20.5119 12.3049 20.4201 12.2435 20.319 12.2016C20.2178 12.1597 20.1095 12.1382 20 12.1382C19.8905 12.1382 19.7822 12.1597 19.681 12.2016C19.5799 12.2435 19.4881 12.3049 19.4107 12.3823L16 15.7933V19C16 19.2652 16.1054 19.5196 16.2929 19.7071C16.4804 19.8946 16.7348 20 17 20H23C23.2652 20 23.5196 19.8946 23.7071 19.7071C23.8946 19.5196 24 19.2652 24 19V15.7933L20.5893 12.3823ZM23 19H21.3333V17.9393C21.3333 17.6018 21.1992 17.2781 20.9606 17.0394C20.7219 16.8008 20.3982 16.6667 20.0607 16.6667H19.9393C19.6018 16.6667 19.2781 16.8008 19.0394 17.0394C18.8008 17.2781 18.6667 17.6018 18.6667 17.9393V19H17V16.2073L20 13.2073L23 16.2073V19Z" fill="#F5F9FA"/>
</g>
<path opacity="0.2" d="M32 10V22" stroke="#F5F9FA"/>
<path d="M40.4261 20L41.6335 12.7273H44.1761C44.6828 12.7273 45.0864 12.8149 45.3871 12.9901C45.6877 13.1629 45.8937 13.3961 46.005 13.6896C46.1162 13.9808 46.1411 14.304 46.0795 14.6591C46.0275 14.9716 45.9292 15.2296 45.7848 15.4332C45.6428 15.6368 45.4723 15.7978 45.2734 15.9162C45.0769 16.0346 44.8722 16.1222 44.6591 16.179L44.6449 16.25C44.8627 16.2642 45.0722 16.3423 45.2734 16.4844C45.4747 16.6264 45.6297 16.83 45.7386 17.0952C45.8475 17.3603 45.8712 17.6847 45.8097 18.0682C45.7481 18.4328 45.6096 18.7607 45.3942 19.0518C45.1787 19.343 44.8781 19.5739 44.4922 19.7443C44.1063 19.9148 43.6269 20 43.054 20H40.4261ZM41.4347 19.2188H43.1818C43.7571 19.2188 44.1844 19.1075 44.4638 18.8849C44.7455 18.66 44.9148 18.3878 44.9716 18.0682C45.0095 17.822 44.9822 17.5947 44.8899 17.3864C44.8 17.1757 44.6496 17.0076 44.4389 16.8821C44.2306 16.7543 43.9678 16.6903 43.6506 16.6903H41.8608L41.4347 19.2188ZM41.9886 15.9233H43.6222C43.8873 15.9233 44.1359 15.8712 44.3679 15.767C44.5999 15.6629 44.794 15.5161 44.9503 15.3267C45.1065 15.1373 45.2036 14.9148 45.2415 14.6591C45.2983 14.3395 45.2344 14.0684 45.0497 13.8459C44.8651 13.621 44.5313 13.5085 44.0483 13.5085H42.3864L41.9886 15.9233ZM49.0891 20.1136C48.5659 20.1136 48.1339 19.9976 47.793 19.7656C47.4521 19.5312 47.2141 19.2045 47.0792 18.7855C46.9442 18.3641 46.9229 17.8741 47.0153 17.3153C47.1076 16.7566 47.2911 16.2642 47.5657 15.8381C47.8403 15.4096 48.1824 15.0758 48.592 14.8366C49.0015 14.5952 49.4513 14.4744 49.9414 14.4744C50.2255 14.4744 50.4989 14.5218 50.7617 14.6165C51.0245 14.7112 51.2518 14.8651 51.4435 15.0781C51.6353 15.2888 51.7691 15.5682 51.8448 15.9162C51.9206 16.2642 51.9158 16.6927 51.8306 17.2017L51.7738 17.5568H47.5692L47.6829 16.8324H51.0352C51.0896 16.5246 51.0754 16.25 50.9925 16.0085C50.9121 15.767 50.7712 15.5765 50.57 15.4368C50.3711 15.2971 50.119 15.2273 49.8136 15.2273C49.4987 15.2273 49.2051 15.3125 48.9329 15.483C48.6606 15.651 48.4334 15.8641 48.2511 16.1222C48.0688 16.3778 47.9551 16.6383 47.9102 16.9034L47.8107 17.5284C47.7397 17.9806 47.7504 18.3404 47.8427 18.608C47.9374 18.8755 48.1019 19.0684 48.3363 19.1868C48.5707 19.3028 48.8642 19.3608 49.217 19.3608C49.4419 19.3608 49.649 19.33 49.8384 19.2685C50.0278 19.2045 50.1971 19.1098 50.3462 18.9844C50.4954 18.8565 50.6209 18.6979 50.7227 18.5085L51.4897 18.7358C51.3595 19.0104 51.176 19.2519 50.9393 19.4602C50.7049 19.6662 50.4303 19.8272 50.1154 19.9432C49.8029 20.0568 49.4608 20.1136 49.0891 20.1136ZM54.0341 16.7188L53.4943 20H52.6562L53.5653 14.5455H54.375L54.233 15.3977H54.304C54.4744 15.1207 54.7053 14.8982 54.9964 14.7301C55.2876 14.5597 55.6392 14.4744 56.0511 14.4744C56.4157 14.4744 56.7235 14.5502 56.9744 14.7017C57.2277 14.8509 57.4065 15.0781 57.5107 15.3835C57.6172 15.6866 57.6326 16.0701 57.5568 16.5341L56.9744 20H56.1364L56.7045 16.5909C56.7756 16.1648 56.7199 15.831 56.5376 15.5895C56.3577 15.348 56.0724 15.2273 55.6818 15.2273C55.4119 15.2273 55.1622 15.2853 54.9325 15.4013C54.7053 15.5173 54.5123 15.6866 54.3537 15.9091C54.1974 16.1316 54.0909 16.4015 54.0341 16.7188ZM60.7076 20.1136C60.1938 20.1136 59.7724 19.9929 59.4434 19.7514C59.1167 19.5099 58.8894 19.1773 58.7615 18.7536C58.6337 18.3298 58.6148 17.8456 58.7047 17.3011C58.7947 16.7472 58.977 16.2583 59.2516 15.8345C59.5262 15.4084 59.8683 15.0758 60.2779 14.8366C60.6874 14.5952 61.1384 14.4744 61.6309 14.4744C62.0144 14.4744 62.3482 14.5455 62.6323 14.6875C62.9164 14.8295 63.1354 15.0284 63.2892 15.2841C63.4431 15.5398 63.5153 15.8381 63.5059 16.179H62.6678C62.6441 15.9304 62.5376 15.7102 62.3482 15.5185C62.1612 15.3243 61.8842 15.2273 61.5172 15.2273C61.1905 15.2273 60.8899 15.3125 60.6152 15.483C60.3406 15.651 60.1098 15.889 59.9228 16.1967C59.7357 16.5021 59.6091 16.8608 59.5428 17.2727C59.4718 17.6941 59.4777 18.0611 59.5605 18.3736C59.6434 18.6861 59.7937 18.9287 60.0115 19.1016C60.2293 19.2744 60.504 19.3608 60.8354 19.3608C61.0532 19.3608 61.2568 19.3229 61.4462 19.2472C61.6356 19.1714 61.8037 19.0625 61.9505 18.9205C62.0972 18.7784 62.2132 18.608 62.2985 18.4091H63.1365C63.0324 18.7311 62.8655 19.0211 62.6358 19.2791C62.4062 19.5348 62.128 19.7384 61.8013 19.8899C61.4746 20.0391 61.11 20.1136 60.7076 20.1136ZM65.4696 16.7188L64.9299 20H64.0918L65.2992 12.7273H66.1373L65.6969 15.3977H65.7679C65.9384 15.1136 66.1657 14.8887 66.4498 14.723C66.7362 14.5573 67.0961 14.4744 67.5293 14.4744C67.8986 14.4744 68.2099 14.549 68.4632 14.6982C68.7189 14.8449 68.8989 15.071 69.003 15.3764C69.1096 15.6795 69.1249 16.0653 69.0492 16.5341L68.4668 20H67.6287L68.1969 16.5909C68.2679 16.1577 68.2099 15.8227 68.0229 15.5859C67.8382 15.3468 67.5506 15.2273 67.16 15.2273C66.8854 15.2273 66.6297 15.2853 66.3929 15.4013C66.1586 15.5173 65.9597 15.6866 65.7963 15.9091C65.6354 16.1316 65.5265 16.4015 65.4696 16.7188ZM70 20L70.9091 14.5455H71.7188L71.5767 15.3977H71.6477C71.8111 15.1065 72.0324 14.8804 72.3118 14.7195C72.5935 14.5561 72.9119 14.4744 73.267 14.4744C73.6222 14.4744 73.9074 14.5561 74.1229 14.7195C74.3383 14.8804 74.4886 15.1065 74.5739 15.3977H74.6307C74.8153 15.1136 75.0616 14.8887 75.3693 14.723C75.6795 14.5573 76.0298 14.4744 76.4205 14.4744C76.9034 14.4744 77.2751 14.6271 77.5355 14.9325C77.7983 15.2379 77.8764 15.7102 77.7699 16.3494L77.1591 20H76.321L76.9318 16.3494C76.9957 15.9446 76.9318 15.657 76.7401 15.4865C76.5507 15.3137 76.3068 15.2273 76.0085 15.2273C75.625 15.2273 75.3089 15.3421 75.0604 15.5717C74.8118 15.8014 74.6591 16.0937 74.6023 16.4489L74.0057 20H73.1534L73.7784 16.2642C73.8281 15.9517 73.7689 15.7008 73.6009 15.5114C73.4328 15.322 73.1889 15.2273 72.8693 15.2273C72.6515 15.2273 72.4384 15.2865 72.2301 15.4048C72.0218 15.5208 71.843 15.6818 71.6939 15.8878C71.5447 16.0914 71.4489 16.3258 71.4062 16.5909L70.8381 20H70ZM80.2823 20.1278C79.9367 20.1278 79.6336 20.0627 79.3732 19.9325C79.1128 19.8 78.9199 19.6094 78.7944 19.3608C78.6689 19.1098 78.6346 18.8068 78.6914 18.4517C78.7459 18.1392 78.8512 17.8859 79.0075 17.6918C79.1637 17.4953 79.3531 17.3414 79.5756 17.2301C79.8005 17.1165 80.042 17.0324 80.3001 16.978C80.5605 16.9212 80.8197 16.8774 81.0778 16.8466C81.4139 16.804 81.6874 16.7708 81.8981 16.7472C82.1088 16.7235 82.2674 16.6844 82.3739 16.63C82.4805 16.5755 82.5456 16.482 82.5692 16.3494V16.321C82.6261 15.973 82.5799 15.7019 82.4308 15.5078C82.2816 15.3113 82.0153 15.2131 81.6317 15.2131C81.234 15.2131 80.9014 15.3007 80.6339 15.4759C80.3664 15.651 80.1687 15.8381 80.0408 16.0369L79.3022 15.7528C79.4963 15.4214 79.7283 15.1634 79.9982 14.9787C80.2681 14.7917 80.551 14.6615 80.8469 14.5881C81.1429 14.5123 81.4281 14.4744 81.7028 14.4744C81.878 14.4744 82.0756 14.4957 82.2958 14.5384C82.516 14.5786 82.7219 14.6626 82.9137 14.7905C83.1078 14.9183 83.2534 15.1113 83.3505 15.3693C83.4499 15.6274 83.4641 15.973 83.3931 16.4062L82.7965 20H81.9585L82.0863 19.2614H82.0437C81.9679 19.3797 81.8519 19.5064 81.6957 19.6413C81.5418 19.7763 81.3465 19.8911 81.1097 19.9858C80.8754 20.0805 80.5996 20.1278 80.2823 20.1278ZM80.5238 19.375C80.8552 19.375 81.1452 19.3099 81.3938 19.1797C81.6448 19.0495 81.846 18.8814 81.9975 18.6754C82.1514 18.4695 82.2473 18.2528 82.2852 18.0256L82.413 17.2585C82.3704 17.3011 82.2863 17.3402 82.1609 17.3757C82.0354 17.4089 81.8933 17.4384 81.7347 17.4645C81.5785 17.4882 81.4258 17.5095 81.2766 17.5284C81.1299 17.545 81.0115 17.5592 80.9215 17.571C80.699 17.5994 80.4871 17.6456 80.2859 17.7095C80.087 17.7711 79.9189 17.8646 79.7816 17.9901C79.6467 18.1132 79.5626 18.2812 79.5295 18.4943C79.4798 18.7855 79.5496 19.0057 79.739 19.1548C79.9284 19.3016 80.19 19.375 80.5238 19.375ZM84.3262 20L85.2353 14.5455H86.0449L85.9029 15.3693H85.9597C86.1017 15.0994 86.3184 14.8804 86.6096 14.7124C86.9007 14.5443 87.2097 14.4602 87.5364 14.4602C87.6003 14.4602 87.6773 14.4614 87.7672 14.4638C87.8572 14.4638 87.927 14.4673 87.9767 14.4744L87.8347 15.3267C87.8063 15.3196 87.7424 15.3089 87.6429 15.2947C87.5435 15.2782 87.437 15.2699 87.3233 15.2699C87.0582 15.2699 86.8132 15.3255 86.5882 15.4368C86.3633 15.5457 86.1751 15.6972 86.0236 15.8913C85.8721 16.0831 85.775 16.3021 85.7324 16.5483L85.1642 20H84.3262ZM89.1744 18.0114L89.3306 16.9744H89.5011L92.2994 14.5455H93.3363L90.3675 17.1165H90.2965L89.1744 18.0114ZM88.0664 20L89.2738 12.7273H90.1119L88.9045 20H88.0664ZM91.5323 20L89.8562 17.3011L90.538 16.7188L92.5977 20H91.5323ZM93.5059 20L94.415 14.5455H95.253L94.3439 20H93.5059ZM95.0897 13.6222C94.9263 13.6222 94.7855 13.5665 94.6671 13.4553C94.5511 13.344 94.4931 13.2102 94.4931 13.054C94.4931 12.8977 94.5511 12.764 94.6671 12.6527C94.7855 12.5414 94.9263 12.4858 95.0897 12.4858C95.253 12.4858 95.3927 12.5414 95.5087 12.6527C95.6271 12.764 95.6863 12.8977 95.6863 13.054C95.6863 13.2102 95.6271 13.344 95.5087 13.4553C95.3927 13.5665 95.253 13.6222 95.0897 13.6222ZM97.2567 16.7188L96.717 20H95.8789L96.788 14.5455H97.5977L97.4556 15.3977H97.5266C97.6971 15.1207 97.9279 14.8982 98.2191 14.7301C98.5103 14.5597 98.8619 14.4744 99.2738 14.4744C99.6384 14.4744 99.9461 14.5502 100.197 14.7017C100.45 14.8509 100.629 15.0781 100.733 15.3835C100.84 15.6866 100.855 16.0701 100.779 16.5341L100.197 20H99.359L99.9272 16.5909C99.9982 16.1648 99.9426 15.831 99.7603 15.5895C99.5804 15.348 99.2951 15.2273 98.9045 15.2273C98.6346 15.2273 98.3848 15.2853 98.1552 15.4013C97.9279 15.5173 97.735 15.6866 97.5763 15.9091C97.4201 16.1316 97.3136 16.4015 97.2567 16.7188ZM103.589 22.1591C103.182 22.1591 102.841 22.107 102.567 22.0028C102.292 21.901 102.072 21.7661 101.906 21.598C101.74 21.4323 101.615 21.2547 101.53 21.0653L102.282 20.5966C102.339 20.696 102.413 20.8097 102.503 20.9375C102.593 21.0677 102.729 21.1802 102.911 21.2749C103.096 21.3719 103.355 21.4205 103.689 21.4205C104.127 21.4205 104.51 21.3139 104.839 21.1009C105.168 20.8878 105.372 20.554 105.45 20.0994L105.621 18.9915H105.55C105.474 19.0909 105.368 19.214 105.233 19.3608C105.099 19.5052 104.917 19.6342 104.69 19.7479C104.463 19.8591 104.172 19.9148 103.817 19.9148C103.374 19.9148 102.995 19.8106 102.68 19.6023C102.365 19.3939 102.139 19.0909 102.002 18.6932C101.867 18.2955 101.847 17.8125 101.942 17.2443C102.034 16.6856 102.211 16.1991 102.474 15.7848C102.739 15.3681 103.066 15.0462 103.454 14.8189C103.843 14.5893 104.266 14.4744 104.726 14.4744C105.081 14.4744 105.353 14.5336 105.542 14.652C105.734 14.768 105.874 14.9006 105.961 15.0497C106.049 15.1965 106.115 15.3172 106.16 15.4119H106.246L106.388 14.5455H107.197L106.274 20.1562C106.196 20.625 106.027 21.0062 105.766 21.2997C105.506 21.5956 105.186 21.8123 104.807 21.9496C104.429 22.0893 104.023 22.1591 103.589 22.1591ZM104.03 19.1619C104.363 19.1619 104.661 19.085 104.921 18.9311C105.184 18.7772 105.402 18.5559 105.574 18.267C105.747 17.9782 105.867 17.6326 105.933 17.2301C105.999 16.8371 105.995 16.4903 105.919 16.1896C105.843 15.889 105.7 15.6534 105.489 15.483C105.281 15.3125 105.007 15.2273 104.669 15.2273C104.311 15.2273 104.002 15.3172 103.742 15.4972C103.484 15.6771 103.274 15.9186 103.113 16.2216C102.952 16.5246 102.841 16.8608 102.78 17.2301C102.718 17.6089 102.72 17.9439 102.787 18.2351C102.853 18.5239 102.988 18.7512 103.192 18.9169C103.398 19.0803 103.677 19.1619 104.03 19.1619ZM111.203 20V12.7273H112.084V19.2188H115.464V20H111.203ZM118.319 20.1278C117.974 20.1278 117.66 20.0627 117.378 19.9325C117.097 19.8 116.873 19.6094 116.707 19.3608C116.541 19.1098 116.459 18.8068 116.459 18.4517C116.459 18.1392 116.52 17.8859 116.643 17.6918C116.766 17.4953 116.931 17.3414 117.137 17.2301C117.343 17.1188 117.57 17.036 117.819 16.9815C118.07 16.9247 118.322 16.8797 118.575 16.8466C118.907 16.804 119.175 16.772 119.381 16.7507C119.59 16.727 119.741 16.688 119.836 16.6335C119.933 16.5791 119.981 16.4844 119.981 16.3494V16.321C119.981 15.9706 119.885 15.6984 119.694 15.5043C119.504 15.3101 119.217 15.2131 118.831 15.2131C118.431 15.2131 118.117 15.3007 117.89 15.4759C117.662 15.651 117.503 15.8381 117.41 16.0369L116.615 15.7528C116.757 15.4214 116.946 15.1634 117.183 14.9787C117.422 14.7917 117.683 14.6615 117.964 14.5881C118.248 14.5123 118.528 14.4744 118.802 14.4744C118.978 14.4744 119.179 14.4957 119.406 14.5384C119.636 14.5786 119.857 14.6626 120.07 14.7905C120.286 14.9183 120.464 15.1113 120.606 15.3693C120.748 15.6274 120.819 15.973 120.819 16.4062V20H119.981V19.2614H119.939C119.882 19.3797 119.787 19.5064 119.655 19.6413C119.522 19.7763 119.346 19.8911 119.126 19.9858C118.905 20.0805 118.637 20.1278 118.319 20.1278ZM118.447 19.375C118.779 19.375 119.058 19.3099 119.285 19.1797C119.515 19.0495 119.688 18.8814 119.804 18.6754C119.922 18.4695 119.981 18.2528 119.981 18.0256V17.2585C119.946 17.3011 119.868 17.3402 119.747 17.3757C119.629 17.4089 119.491 17.4384 119.335 17.4645C119.181 17.4882 119.031 17.5095 118.884 17.5284C118.74 17.545 118.622 17.5592 118.532 17.571C118.315 17.5994 118.111 17.6456 117.922 17.7095C117.735 17.7711 117.583 17.8646 117.467 17.9901C117.354 18.1132 117.297 18.2812 117.297 18.4943C117.297 18.7855 117.404 19.0057 117.62 19.1548C117.838 19.3016 118.113 19.375 118.447 19.375ZM122.349 22.0455V14.5455H123.159V15.4119H123.258C123.32 15.3172 123.405 15.1965 123.514 15.0497C123.625 14.9006 123.784 14.768 123.99 14.652C124.198 14.5336 124.48 14.4744 124.835 14.4744C125.294 14.4744 125.699 14.5893 126.049 14.8189C126.4 15.0485 126.673 15.3741 126.87 15.7955C127.066 16.2169 127.164 16.714 127.164 17.2869C127.164 17.8646 127.066 18.3653 126.87 18.7891C126.673 19.2105 126.401 19.5372 126.053 19.7692C125.705 19.9988 125.304 20.1136 124.849 20.1136C124.499 20.1136 124.218 20.0556 124.007 19.9396C123.797 19.8213 123.635 19.6875 123.521 19.5384C123.407 19.3868 123.32 19.2614 123.258 19.1619H123.187V22.0455H122.349ZM123.173 17.2727C123.173 17.6847 123.233 18.0481 123.354 18.3629C123.475 18.6754 123.651 18.9205 123.883 19.098C124.115 19.2732 124.399 19.3608 124.735 19.3608C125.086 19.3608 125.378 19.2685 125.613 19.0838C125.849 18.8968 126.027 18.6458 126.145 18.331C126.266 18.0137 126.326 17.661 126.326 17.2727C126.326 16.8892 126.267 16.5436 126.149 16.2358C126.033 15.9257 125.856 15.6806 125.62 15.5007C125.385 15.3184 125.091 15.2273 124.735 15.2273C124.395 15.2273 124.108 15.3137 123.876 15.4865C123.644 15.657 123.469 15.8961 123.35 16.2038C123.232 16.5092 123.173 16.8655 123.173 17.2727ZM130.659 20.1136C130.166 20.1136 129.734 19.9964 129.363 19.7621C128.993 19.5277 128.704 19.1998 128.496 18.7784C128.29 18.357 128.187 17.8646 128.187 17.3011C128.187 16.733 128.29 16.237 128.496 15.8132C128.704 15.3894 128.993 15.0604 129.363 14.826C129.734 14.5916 130.166 14.4744 130.659 14.4744C131.151 14.4744 131.582 14.5916 131.951 14.826C132.323 15.0604 132.612 15.3894 132.818 15.8132C133.026 16.237 133.13 16.733 133.13 17.3011C133.13 17.8646 133.026 18.357 132.818 18.7784C132.612 19.1998 132.323 19.5277 131.951 19.7621C131.582 19.9964 131.151 20.1136 130.659 20.1136ZM130.659 19.3608C131.033 19.3608 131.341 19.2649 131.582 19.0732C131.824 18.8814 132.002 18.6293 132.118 18.3168C132.234 18.0043 132.292 17.6657 132.292 17.3011C132.292 16.9366 132.234 16.5968 132.118 16.282C132.002 15.9671 131.824 15.7126 131.582 15.5185C131.341 15.3243 131.033 15.2273 130.659 15.2273C130.285 15.2273 129.977 15.3243 129.735 15.5185C129.494 15.7126 129.315 15.9671 129.199 16.282C129.083 16.5968 129.025 16.9366 129.025 17.3011C129.025 17.6657 129.083 18.0043 129.199 18.3168C129.315 18.6293 129.494 18.8814 129.735 19.0732C129.977 19.2649 130.285 19.3608 130.659 19.3608ZM134.41 20V14.5455H135.219V15.3693H135.276C135.376 15.0994 135.555 14.8804 135.816 14.7124C136.076 14.5443 136.37 14.4602 136.697 14.4602C136.758 14.4602 136.835 14.4614 136.927 14.4638C137.02 14.4661 137.09 14.4697 137.137 14.4744V15.3267C137.108 15.3196 137.043 15.3089 136.942 15.2947C136.842 15.2782 136.737 15.2699 136.626 15.2699C136.36 15.2699 136.124 15.3255 135.915 15.4368C135.709 15.5457 135.546 15.6972 135.425 15.8913C135.307 16.0831 135.248 16.3021 135.248 16.5483V20H134.41ZM139.735 20.1278C139.39 20.1278 139.076 20.0627 138.794 19.9325C138.513 19.8 138.289 19.6094 138.123 19.3608C137.958 19.1098 137.875 18.8068 137.875 18.4517C137.875 18.1392 137.936 17.8859 138.059 17.6918C138.182 17.4953 138.347 17.3414 138.553 17.2301C138.759 17.1188 138.986 17.036 139.235 16.9815C139.486 16.9247 139.738 16.8797 139.991 16.8466C140.323 16.804 140.591 16.772 140.797 16.7507C141.006 16.727 141.157 16.688 141.252 16.6335C141.349 16.5791 141.397 16.4844 141.397 16.3494V16.321C141.397 15.9706 141.301 15.6984 141.11 15.5043C140.92 15.3101 140.633 15.2131 140.247 15.2131C139.847 15.2131 139.533 15.3007 139.306 15.4759C139.078 15.651 138.919 15.8381 138.826 16.0369L138.031 15.7528C138.173 15.4214 138.362 15.1634 138.599 14.9787C138.838 14.7917 139.099 14.6615 139.38 14.5881C139.664 14.5123 139.944 14.4744 140.218 14.4744C140.394 14.4744 140.595 14.4957 140.822 14.5384C141.052 14.5786 141.273 14.6626 141.486 14.7905C141.702 14.9183 141.88 15.1113 142.022 15.3693C142.164 15.6274 142.235 15.973 142.235 16.4062V20H141.397V19.2614H141.355C141.298 19.3797 141.203 19.5064 141.071 19.6413C140.938 19.7763 140.762 19.8911 140.542 19.9858C140.321 20.0805 140.053 20.1278 139.735 20.1278ZM139.863 19.375C140.195 19.375 140.474 19.3099 140.701 19.1797C140.931 19.0495 141.104 18.8814 141.22 18.6754C141.338 18.4695 141.397 18.2528 141.397 18.0256V17.2585C141.362 17.3011 141.284 17.3402 141.163 17.3757C141.045 17.4089 140.907 17.4384 140.751 17.4645C140.597 17.4882 140.447 17.5095 140.3 17.5284C140.156 17.545 140.038 17.5592 139.949 17.571C139.731 17.5994 139.527 17.6456 139.338 17.7095C139.151 17.7711 138.999 17.8646 138.883 17.9901C138.77 18.1132 138.713 18.2812 138.713 18.4943C138.713 18.7855 138.82 19.0057 139.036 19.1548C139.254 19.3016 139.529 19.375 139.863 19.375ZM144.603 16.7188V20H143.765V14.5455H144.575V15.3977H144.646C144.774 15.1207 144.968 14.8982 145.228 14.7301C145.489 14.5597 145.825 14.4744 146.237 14.4744C146.606 14.4744 146.929 14.5502 147.206 14.7017C147.483 14.8509 147.699 15.0781 147.852 15.3835C148.006 15.6866 148.083 16.0701 148.083 16.5341V20H147.245V16.5909C147.245 16.1624 147.134 15.8286 146.911 15.5895C146.689 15.348 146.383 15.2273 145.995 15.2273C145.728 15.2273 145.489 15.2853 145.278 15.4013C145.07 15.5173 144.905 15.6866 144.784 15.9091C144.664 16.1316 144.603 16.4015 144.603 16.7188ZM152.541 20V12.7273H153.422V16.3352H153.507L156.774 12.7273H157.924L154.87 16.0085L157.924 20H156.859L154.331 16.6193L153.422 17.642V20H152.541ZM160.837 20.1136C160.312 20.1136 159.858 19.9976 159.477 19.7656C159.098 19.5312 158.806 19.2045 158.6 18.7855C158.396 18.3641 158.295 17.8741 158.295 17.3153C158.295 16.7566 158.396 16.2642 158.6 15.8381C158.806 15.4096 159.092 15.0758 159.459 14.8366C159.829 14.5952 160.26 14.4744 160.752 14.4744C161.036 14.4744 161.317 14.5218 161.594 14.6165C161.871 14.7112 162.123 14.8651 162.35 15.0781C162.577 15.2888 162.758 15.5682 162.893 15.9162C163.028 16.2642 163.096 16.6927 163.096 17.2017V17.5568H158.891V16.8324H162.243C162.243 16.5246 162.182 16.25 162.059 16.0085C161.938 15.767 161.765 15.5765 161.54 15.4368C161.318 15.2971 161.055 15.2273 160.752 15.2273C160.418 15.2273 160.129 15.3101 159.885 15.4759C159.644 15.6392 159.458 15.8523 159.328 16.1151C159.198 16.3778 159.133 16.6596 159.133 16.9602V17.4432C159.133 17.8551 159.204 18.2043 159.346 18.4908C159.49 18.7749 159.69 18.9915 159.946 19.1406C160.202 19.2874 160.499 19.3608 160.837 19.3608C161.057 19.3608 161.256 19.33 161.434 19.2685C161.614 19.2045 161.769 19.1098 161.899 18.9844C162.029 18.8565 162.13 18.6979 162.201 18.5085L163.01 18.7358C162.925 19.0104 162.782 19.2519 162.581 19.4602C162.38 19.6662 162.131 19.8272 161.835 19.9432C161.539 20.0568 161.206 20.1136 160.837 20.1136ZM167.808 17.7699V14.5455H168.646V20H167.808V19.0767H167.751C167.623 19.3537 167.425 19.5893 167.155 19.7834C166.885 19.9751 166.544 20.071 166.132 20.071C165.791 20.071 165.488 19.9964 165.223 19.8473C164.958 19.6958 164.749 19.4685 164.598 19.1655C164.446 18.8601 164.371 18.4754 164.371 18.0114V14.5455H165.209V17.9545C165.209 18.3523 165.32 18.6695 165.542 18.9062C165.767 19.143 166.054 19.2614 166.402 19.2614C166.61 19.2614 166.822 19.2081 167.037 19.1016C167.255 18.995 167.438 18.8317 167.584 18.6115C167.733 18.3913 167.808 18.1108 167.808 17.7699ZM171.786 20.1278C171.441 20.1278 171.127 20.0627 170.845 19.9325C170.563 19.8 170.34 19.6094 170.174 19.3608C170.008 19.1098 169.925 18.8068 169.925 18.4517C169.925 18.1392 169.987 17.8859 170.11 17.6918C170.233 17.4953 170.398 17.3414 170.604 17.2301C170.81 17.1188 171.037 17.036 171.286 16.9815C171.536 16.9247 171.789 16.8797 172.042 16.8466C172.373 16.804 172.642 16.772 172.848 16.7507C173.056 16.727 173.208 16.688 173.303 16.6335C173.4 16.5791 173.448 16.4844 173.448 16.3494V16.321C173.448 15.9706 173.352 15.6984 173.161 15.5043C172.971 15.3101 172.683 15.2131 172.298 15.2131C171.897 15.2131 171.584 15.3007 171.357 15.4759C171.129 15.651 170.969 15.8381 170.877 16.0369L170.082 15.7528C170.224 15.4214 170.413 15.1634 170.65 14.9787C170.889 14.7917 171.149 14.6615 171.431 14.5881C171.715 14.5123 171.995 14.4744 172.269 14.4744C172.444 14.4744 172.646 14.4957 172.873 14.5384C173.103 14.5786 173.324 14.6626 173.537 14.7905C173.752 14.9183 173.931 15.1113 174.073 15.3693C174.215 15.6274 174.286 15.973 174.286 16.4062V20H173.448V19.2614H173.406C173.349 19.3797 173.254 19.5064 173.121 19.6413C172.989 19.7763 172.813 19.8911 172.592 19.9858C172.372 20.0805 172.103 20.1278 171.786 20.1278ZM171.914 19.375C172.246 19.375 172.525 19.3099 172.752 19.1797C172.982 19.0495 173.155 18.8814 173.271 18.6754C173.389 18.4695 173.448 18.2528 173.448 18.0256V17.2585C173.413 17.3011 173.335 17.3402 173.214 17.3757C173.095 17.4089 172.958 17.4384 172.802 17.4645C172.648 17.4882 172.498 17.5095 172.351 17.5284C172.206 17.545 172.089 17.5592 171.999 17.571C171.781 17.5994 171.578 17.6456 171.388 17.7095C171.201 17.7711 171.05 17.8646 170.934 17.9901C170.82 18.1132 170.763 18.2812 170.763 18.4943C170.763 18.7855 170.871 19.0057 171.087 19.1548C171.304 19.3016 171.58 19.375 171.914 19.375ZM176.654 16.7188V20H175.816V14.5455H176.626V15.3977H176.697C176.824 15.1207 177.019 14.8982 177.279 14.7301C177.539 14.5597 177.876 14.4744 178.287 14.4744C178.657 14.4744 178.98 14.5502 179.257 14.7017C179.534 14.8509 179.749 15.0781 179.903 15.3835C180.057 15.6866 180.134 16.0701 180.134 16.5341V20H179.296V16.5909C179.296 16.1624 179.185 15.8286 178.962 15.5895C178.74 15.348 178.434 15.2273 178.046 15.2273C177.778 15.2273 177.539 15.2853 177.329 15.4013C177.12 15.5173 176.956 15.6866 176.835 15.9091C176.714 16.1316 176.654 16.4015 176.654 16.7188ZM183.867 22.1591C183.462 22.1591 183.114 22.107 182.823 22.0028C182.532 21.901 182.289 21.7661 182.095 21.598C181.903 21.4323 181.751 21.2547 181.637 21.0653L182.305 20.5966C182.38 20.696 182.476 20.8097 182.592 20.9375C182.708 21.0677 182.867 21.1802 183.068 21.2749C183.272 21.3719 183.538 21.4205 183.867 21.4205C184.308 21.4205 184.671 21.3139 184.957 21.1009C185.244 20.8878 185.387 20.554 185.387 20.0994V18.9915H185.316C185.254 19.0909 185.167 19.214 185.053 19.3608C184.942 19.5052 184.781 19.6342 184.57 19.7479C184.362 19.8591 184.08 19.9148 183.725 19.9148C183.285 19.9148 182.889 19.8106 182.539 19.6023C182.191 19.3939 181.915 19.0909 181.712 18.6932C181.51 18.2955 181.41 17.8125 181.41 17.2443C181.41 16.6856 181.508 16.1991 181.705 15.7848C181.901 15.3681 182.174 15.0462 182.525 14.8189C182.875 14.5893 183.28 14.4744 183.739 14.4744C184.094 14.4744 184.376 14.5336 184.585 14.652C184.795 14.768 184.956 14.9006 185.067 15.0497C185.181 15.1965 185.269 15.3172 185.33 15.4119H185.415V14.5455H186.225V20.1562C186.225 20.625 186.119 21.0062 185.906 21.2997C185.695 21.5956 185.411 21.8123 185.053 21.9496C184.698 22.0893 184.303 22.1591 183.867 22.1591ZM183.839 19.1619C184.175 19.1619 184.459 19.085 184.691 18.9311C184.923 18.7772 185.099 18.5559 185.22 18.267C185.341 17.9782 185.401 17.6326 185.401 17.2301C185.401 16.8371 185.342 16.4903 185.224 16.1896C185.105 15.889 184.93 15.6534 184.698 15.483C184.466 15.3125 184.18 15.2273 183.839 15.2273C183.484 15.2273 183.188 15.3172 182.951 15.4972C182.717 15.6771 182.54 15.9186 182.422 16.2216C182.306 16.5246 182.248 16.8608 182.248 17.2301C182.248 17.6089 182.307 17.9439 182.425 18.2351C182.546 18.5239 182.724 18.7512 182.958 18.9169C183.195 19.0803 183.488 19.1619 183.839 19.1619ZM189.364 20.1278C189.019 20.1278 188.705 20.0627 188.423 19.9325C188.142 19.8 187.918 19.6094 187.752 19.3608C187.586 19.1098 187.504 18.8068 187.504 18.4517C187.504 18.1392 187.565 17.8859 187.688 17.6918C187.811 17.4953 187.976 17.3414 188.182 17.2301C188.388 17.1188 188.615 17.036 188.864 16.9815C189.115 16.9247 189.367 16.8797 189.62 16.8466C189.951 16.804 190.22 16.772 190.426 16.7507C190.634 16.727 190.786 16.688 190.881 16.6335C190.978 16.5791 191.026 16.4844 191.026 16.3494V16.321C191.026 15.9706 190.93 15.6984 190.739 15.5043C190.549 15.3101 190.262 15.2131 189.876 15.2131C189.476 15.2131 189.162 15.3007 188.935 15.4759C188.707 15.651 188.548 15.8381 188.455 16.0369L187.66 15.7528C187.802 15.4214 187.991 15.1634 188.228 14.9787C188.467 14.7917 188.728 14.6615 189.009 14.5881C189.293 14.5123 189.573 14.4744 189.847 14.4744C190.022 14.4744 190.224 14.4957 190.451 14.5384C190.681 14.5786 190.902 14.6626 191.115 14.7905C191.33 14.9183 191.509 15.1113 191.651 15.3693C191.793 15.6274 191.864 15.973 191.864 16.4062V20H191.026V19.2614H190.984C190.927 19.3797 190.832 19.5064 190.7 19.6413C190.567 19.7763 190.391 19.8911 190.17 19.9858C189.95 20.0805 189.682 20.1278 189.364 20.1278ZM189.492 19.375C189.824 19.375 190.103 19.3099 190.33 19.1797C190.56 19.0495 190.733 18.8814 190.849 18.6754C190.967 18.4695 191.026 18.2528 191.026 18.0256V17.2585C190.991 17.3011 190.913 17.3402 190.792 17.3757C190.674 17.4089 190.536 17.4384 190.38 17.4645C190.226 17.4882 190.076 17.5095 189.929 17.5284C189.785 17.545 189.667 17.5592 189.577 17.571C189.36 17.5994 189.156 17.6456 188.967 17.7095C188.78 17.7711 188.628 17.8646 188.512 17.9901C188.398 18.1132 188.342 18.2812 188.342 18.4943C188.342 18.7855 188.449 19.0057 188.665 19.1548C188.883 19.3016 189.158 19.375 189.492 19.375ZM194.232 16.7188V20H193.394V14.5455H194.204V15.3977H194.275C194.403 15.1207 194.597 14.8982 194.857 14.7301C195.117 14.5597 195.454 14.4744 195.866 14.4744C196.235 14.4744 196.558 14.5502 196.835 14.7017C197.112 14.8509 197.327 15.0781 197.481 15.3835C197.635 15.6866 197.712 16.0701 197.712 16.5341V20H196.874V16.5909C196.874 16.1624 196.763 15.8286 196.54 15.5895C196.318 15.348 196.012 15.2273 195.624 15.2273C195.357 15.2273 195.117 15.2853 194.907 15.4013C194.698 15.5173 194.534 15.6866 194.413 15.9091C194.292 16.1316 194.232 16.4015 194.232 16.7188Z" fill="#F5F9FA"/>
<defs>
<clipPath id="clip0_2062_3216">
<rect width="8" height="8" fill="white" transform="translate(16 12)"/>
</clipPath>
</defs>
</svg>
