<svg width="8" height="8" viewBox="0 0 8 8" fill="none" xmlns="http://www.w3.org/2000/svg">
<path d="M4.58933 0.382339C4.51195 0.304934 4.42007 0.243531 4.31895 0.201638C4.21783 0.159746 4.10945 0.138184 4 0.138184C3.89055 0.138184 3.78217 0.159746 3.68105 0.201638C3.57993 0.243531 3.48805 0.304934 3.41067 0.382339L0 3.79334V7.00001C0 7.26522 0.105357 7.51958 0.292893 7.70711C0.48043 7.89465 0.734784 8.00001 1 8.00001H7C7.26522 8.00001 7.51957 7.89465 7.70711 7.70711C7.89464 7.51958 8 7.26522 8 7.00001V3.79334L4.58933 0.382339ZM7 7.00001H5.33333V5.93934C5.33333 5.60181 5.19925 5.2781 4.96058 5.03943C4.72191 4.80076 4.3982 4.66667 4.06067 4.66667H3.93933C3.6018 4.66667 3.27809 4.80076 3.03942 5.03943C2.80075 5.2781 2.66667 5.60181 2.66667 5.93934V7.00001H1V4.20734L4 1.20734L7 4.20734V7.00001Z" fill="#F5F9FA"/>
</svg>
