<svg width="16" height="18" viewBox="0 0 16 18" fill="none" xmlns="http://www.w3.org/2000/svg">
<g clip-path="url(#clip0_2057_7374)">
<path d="M8 1C6.41775 1 4.87103 1.46919 3.55544 2.34824C2.23985 3.22729 1.21447 4.47672 0.608967 5.93853C0.00346629 7.40034 -0.15496 9.00887 0.153721 10.5607C0.462403 12.1126 1.22433 13.538 2.34315 14.6569C3.46197 15.7757 4.88743 16.5376 6.43928 16.8463C7.99113 17.155 9.59966 16.9965 11.0615 16.391C12.5233 15.7855 13.7727 14.7602 14.6518 13.4446C15.5308 12.129 16 10.5822 16 9C15.9977 6.87897 15.1541 4.84547 13.6543 3.34568C12.1545 1.84589 10.121 1.00229 8 1V1ZM8 15.6667C6.68146 15.6667 5.39253 15.2757 4.2962 14.5431C3.19987 13.8106 2.34539 12.7694 1.84081 11.5512C1.33622 10.333 1.2042 8.9926 1.46143 7.6994C1.71867 6.40619 2.35361 5.2183 3.28596 4.28595C4.21831 3.3536 5.40619 2.71867 6.6994 2.46143C7.99261 2.2042 9.33305 2.33622 10.5512 2.8408C11.7694 3.34539 12.8106 4.19987 13.5431 5.2962C14.2757 6.39253 14.6667 7.68146 14.6667 9C14.6647 10.7675 13.9617 12.4621 12.7119 13.7119C11.4621 14.9617 9.76752 15.6647 8 15.6667Z" fill="#00858D"/>
<path d="M8.47768 4.37534C8.09323 4.3053 7.69809 4.3206 7.32021 4.42017C6.94233 4.51974 6.59095 4.70115 6.29094 4.95155C5.99093 5.20195 5.74962 5.51522 5.58408 5.86921C5.41855 6.22319 5.33283 6.60923 5.33301 7.00001C5.33301 7.17682 5.40325 7.34639 5.52827 7.47141C5.6533 7.59644 5.82286 7.66667 5.99968 7.66667C6.17649 7.66667 6.34606 7.59644 6.47108 7.47141C6.59611 7.34639 6.66634 7.17682 6.66634 7.00001C6.66618 6.80386 6.70929 6.61009 6.79261 6.43251C6.87592 6.25494 6.99739 6.09793 7.14836 5.9727C7.29932 5.84746 7.47605 5.75707 7.66596 5.70797C7.85587 5.65888 8.05427 5.65229 8.24701 5.68868C8.51037 5.7398 8.75252 5.86827 8.94251 6.05767C9.13251 6.24707 9.26173 6.48881 9.31368 6.75201C9.36615 7.02828 9.32992 7.31406 9.21018 7.5685C9.09045 7.82294 8.89333 8.03301 8.64701 8.16867C8.23913 8.40498 7.90207 8.74635 7.67096 9.15721C7.43985 9.56807 7.32315 10.0334 7.33301 10.5047V11C7.33301 11.1768 7.40325 11.3464 7.52827 11.4714C7.6533 11.5964 7.82287 11.6667 7.99968 11.6667C8.17649 11.6667 8.34606 11.5964 8.47108 11.4714C8.59611 11.3464 8.66635 11.1768 8.66635 11V10.5047C8.65798 10.2727 8.71088 10.0426 8.81973 9.83753C8.92857 9.63249 9.08951 9.45974 9.28635 9.33667C9.76936 9.07139 10.1583 8.66298 10.3997 8.16761C10.6412 7.67224 10.7232 7.11425 10.6345 6.57036C10.5459 6.02647 10.2909 5.5234 9.90468 5.13034C9.51845 4.73728 9.01993 4.47352 8.47768 4.37534Z" fill="#00858D"/>
<path d="M8.66634 13C8.66634 12.6319 8.36786 12.3334 7.99967 12.3334C7.63148 12.3334 7.33301 12.6319 7.33301 13C7.33301 13.3682 7.63148 13.6667 7.99967 13.6667C8.36786 13.6667 8.66634 13.3682 8.66634 13Z" fill="#00858D"/>
</g>
<defs>
<clipPath id="clip0_2057_7374">
<rect width="16" height="16" fill="white" transform="translate(0 1)"/>
</clipPath>
</defs>
</svg>
