<svg width="24" height="24" viewBox="0 0 24 24" fill="none" xmlns="http://www.w3.org/2000/svg">
<g clip-path="url(#clip0_2062_3226)">
<path d="M15.5 3H13V0H11V3H8.5C7.30693 3.00132 6.16311 3.47585 5.31948 4.31948C4.47585 5.16311 4.00132 6.30693 4 7.5V16C4 18.1217 4.84285 20.1566 6.34315 21.6569C7.84344 23.1571 9.87827 24 12 24C14.1217 24 16.1566 23.1571 17.6569 21.6569C19.1571 20.1566 20 18.1217 20 16V7.5C19.9987 6.30693 19.5241 5.16311 18.6805 4.31948C17.8369 3.47585 16.6931 3.00132 15.5 3ZM18 16C18 17.5913 17.3679 19.1174 16.2426 20.2426C15.1174 21.3679 13.5913 22 12 22C10.4087 22 8.88258 21.3679 7.75736 20.2426C6.63214 19.1174 6 17.5913 6 16V7.5C6 6.83696 6.26339 6.20107 6.73223 5.73223C7.20107 5.26339 7.83696 5 8.5 5H15.5C16.163 5 16.7989 5.26339 17.2678 5.73223C17.7366 6.20107 18 6.83696 18 7.5V16Z" fill="#F5F9FA"/>
<path d="M13 7H11V11H13V7Z" fill="#F5F9FA"/>
</g>
<defs>
<clipPath id="clip0_2062_3226">
<rect width="24" height="24" fill="white"/>
</clipPath>
</defs>
</svg>
